<svg width="277" height="77" viewBox="0 0 277 77" fill="none" xmlns="http://www.w3.org/2000/svg">
<path d="M38.4665 17.8954H36.1956V25.7914C35.3761 25.3053 34.1956 24.8886 32.6538 24.5413C31.2094 24.208 29.9593 24.0413 28.9038 24.0413C26.362 24.0413 24.23 24.4927 22.5078 25.3955C21.5355 25.9094 21.0494 26.5831 21.0494 27.4164C21.0494 28.5276 21.6328 29.0831 22.7994 29.0831C23.5078 29.0831 24.4314 28.8748 25.5703 28.4581C26.3065 28.1942 27.2509 27.8609 28.4037 27.4581C28.8899 27.2914 29.751 27.2081 30.9871 27.2081C33.39 27.2081 35.1817 27.9512 36.3623 29.4373C36.9317 30.1456 37.2165 30.979 37.2165 31.9374C37.2165 34.1457 35.8275 35.8819 33.0497 37.1458C31.8969 37.6736 30.7996 37.9722 29.7579 38.0417C30.758 39.0417 31.7094 39.5417 32.6122 39.5417C32.9039 39.5417 33.2164 39.5 33.5497 39.4167L35.6539 42.8543C35.2234 43.2293 34.3414 43.4168 33.008 43.4168C31.9247 43.4168 31.008 43.0487 30.258 42.3126C29.8552 41.9098 29.2857 41.0695 28.5496 39.7917C27.9246 38.6945 27.4037 38.1389 26.987 38.125C24.4175 38.0556 22.4383 37.5903 21.0494 36.7291C20.1744 36.1875 19.7369 35.4444 19.7369 34.4999C19.7369 33.3332 20.4313 32.7499 21.8203 32.7499C22.3342 32.7499 23.4036 33.1527 25.0287 33.9582C26.6676 34.7499 28.0148 35.1458 29.0704 35.1458C31.1816 35.1458 33.1608 34.6458 35.0081 33.6457C35.9109 33.1596 36.3623 32.5624 36.3623 31.854C36.3623 30.7984 35.5289 30.2706 33.8622 30.2706C33.3483 30.2706 31.6885 30.6457 28.8829 31.3957C27.2301 31.8401 26.2162 32.0624 25.8412 32.0624C23.6328 32.0624 21.8133 31.0207 20.3827 28.9373C19.6883 27.9373 19.341 26.8608 19.341 25.708C19.3271 23.3608 20.9313 21.7774 24.1536 20.9579C25.4731 20.6246 26.7162 20.4579 27.8829 20.4579C29.2163 20.4579 31.1052 20.7843 33.5497 21.4371V17.8954H16.966V15.3953H38.4665V17.8954ZM58.6128 17.8954H44.7375V21.2288C44.793 21.2288 44.8486 21.2565 44.9041 21.3121C44.9597 21.3677 45.0083 21.3954 45.05 21.3954C44.9389 21.3954 44.8764 21.3885 44.8625 21.3746C44.8625 21.3052 45.8972 21.0829 47.9667 20.7079C48.7306 20.569 49.4876 20.4996 50.2376 20.4996C53.3627 20.4996 55.3697 21.3746 56.2586 23.1246C56.8558 24.2913 57.1544 26.6456 57.1544 30.1873V38.2083C56.8628 38.0972 55.7586 37.6458 53.8418 36.8541C53.8418 36.4097 53.7516 36.125 53.571 36C52.8349 36.4305 52.2307 36.7569 51.7585 36.9791C50.2584 37.6875 48.5153 38.0417 46.5292 38.0417C43.793 38.0417 41.6818 37.1805 40.1957 35.4583C39.4735 34.6249 39.1123 33.6943 39.1123 32.6665C39.1123 31.5137 39.6818 30.3679 40.8207 29.229C43.0291 27.0206 45.7722 25.9164 49.0501 25.9164C51.0362 25.9164 52.6335 26.3747 53.8418 27.2914V25.3747C53.2307 24.5969 52.6335 24.0761 52.0501 23.8122C51.4807 23.5483 50.6959 23.4302 49.6959 23.458C47.4598 23.4997 45.4111 23.9094 43.5499 24.6872C42.7166 25.0344 41.9041 25.3469 41.1124 25.6247V24.083C41.2929 23.9302 41.5568 23.701 41.9041 23.3955C41.9596 23.326 41.9943 23.2844 42.0082 23.2705V17.8954H37.7373V15.3953H58.6128V17.8954ZM53.8418 31.0832C53.8418 30.472 53.1127 29.9234 51.6543 29.4373C50.4459 29.0345 49.439 28.8331 48.6334 28.8331C45.7028 28.8331 43.3555 29.8887 41.5916 31.9999C40.8832 32.8471 40.529 33.5416 40.529 34.0832C40.8207 35.0972 41.9666 35.6041 43.9666 35.6041C46.55 35.6041 48.9112 34.9583 51.0501 33.6666C52.9113 32.5415 53.8418 31.6804 53.8418 31.0832ZM80.7383 17.8954H58.342V15.3953H80.7383V17.8954ZM76.259 27.0414C76.259 23.708 74.6826 22.0413 71.5298 22.0413C69.1964 22.0413 67.2449 23.2635 65.6755 25.708C64.2865 27.8748 63.5921 30.1804 63.5921 32.6249V38.6875L60.1753 36.8958V21.2288H63.7587V23.708L65.613 22.3121C67.2519 21.076 68.9811 20.4579 70.8006 20.4579C73.2729 20.4579 75.3215 21.4163 76.9466 23.333C78.4744 25.1386 79.2383 27.2984 79.2383 29.8123C79.2383 32.9652 77.9049 35.993 75.2382 38.8959L71.2173 36.375C72.4673 35.1388 73.5298 33.9999 74.4048 32.9582C75.641 31.486 76.259 29.5137 76.259 27.0414ZM102.656 17.8954H97.9679V23.6247C97.9679 23.7497 98.5235 24.3677 99.6346 25.4789C100.482 26.5067 100.905 27.9789 100.905 29.8956C100.905 33.0763 99.4957 35.4305 96.6762 36.9583C95.3428 37.6805 93.8914 38.0417 92.3219 38.0417C90.0441 38.0417 87.6968 37.0347 85.2801 35.0208C82.7523 32.9096 81.4883 30.6179 81.4883 28.1456C81.4883 27.0067 81.8981 25.8261 82.7175 24.6038C83.4537 23.5066 84.3426 22.5969 85.3843 21.8746C86.6343 21.0135 88.1413 20.5829 89.9052 20.5829C90.8774 20.5829 92.315 20.8399 94.2178 21.3538C94.3011 21.3538 94.3428 21.2982 94.3428 21.1871V17.8954H80.0508V15.3953H102.656V17.8954ZM97.8429 27.1247C97.8429 25.1664 96.9818 23.8538 95.2595 23.1871C94.6206 22.9371 94.072 22.8121 93.6136 22.8121C91.8914 22.8121 90.0372 23.583 88.051 25.1247C85.7315 26.9303 84.5717 29.229 84.5717 32.0207C84.5717 33.3263 85.3218 34.3957 86.8218 35.2291C87.5024 35.6041 88.1899 35.7916 88.8843 35.7916C90.6066 35.7916 92.4955 34.9583 94.5511 33.2916C96.7456 31.5137 97.8429 29.4581 97.8429 27.1247ZM124.531 17.8954H119.843V23.6247C119.843 23.7497 120.399 24.3677 121.51 25.4789C122.357 26.5067 122.781 27.9789 122.781 29.8956C122.781 33.0763 121.371 35.4305 118.552 36.9583C117.218 37.6805 115.767 38.0417 114.197 38.0417C111.92 38.0417 109.572 37.0347 107.156 35.0208C104.628 32.9096 103.364 30.6179 103.364 28.1456C103.364 27.0067 103.774 25.8261 104.593 24.6038C105.329 23.5066 106.218 22.5969 107.26 21.8746C108.51 21.0135 110.017 20.5829 111.781 20.5829C112.753 20.5829 114.191 20.8399 116.093 21.3538C116.177 21.3538 116.218 21.2982 116.218 21.1871V17.8954H101.926V15.3953H124.531V17.8954ZM119.718 27.1247C119.718 25.1664 118.857 23.8538 117.135 23.1871C116.496 22.9371 115.947 22.8121 115.489 22.8121C113.767 22.8121 111.913 23.583 109.927 25.1247C107.607 26.9303 106.447 29.229 106.447 32.0207C106.447 33.3263 107.197 34.3957 108.697 35.2291C109.378 35.6041 110.065 35.7916 110.76 35.7916C112.482 35.7916 114.371 34.9583 116.427 33.2916C118.621 31.5137 119.718 29.4581 119.718 27.1247ZM147.823 17.8954H123.927V15.3953H147.823V17.8954ZM146.157 29.4165C146.157 30.9443 145.698 32.3888 144.782 33.7499C143.934 35.0138 142.816 36.0486 141.427 36.8541C140.038 37.6458 138.754 38.0417 137.573 38.0417C136.42 38.0417 134.983 37.3958 133.26 36.1041C132.427 35.4791 131.205 34.4027 129.594 32.8749V50.542L126.26 48.7919V21.2288H129.51V26.3122L130.781 24.9789C133.712 21.9093 136.087 20.3746 137.906 20.3746C139.879 20.3746 141.761 21.3954 143.552 23.4372C145.288 25.4233 146.157 27.4164 146.157 29.4165ZM144.094 26.9997C144.094 25.9442 143.545 24.9302 142.448 23.958C141.906 23.4719 141.219 23.2288 140.386 23.2288C138.747 23.2288 136.712 24.2219 134.281 26.2081C131.781 28.2498 130.531 30.0623 130.531 31.6457C130.531 32.5763 131.399 33.3957 133.135 34.1041C133.913 34.4235 134.67 34.5833 135.406 34.5833C137.823 34.5833 139.92 33.6527 141.698 31.7915C143.295 30.1248 144.094 28.5276 144.094 26.9997ZM170.761 17.8954H153.323V31.2498C153.323 32.1387 153.511 33.0554 153.886 33.9999C154.65 35.9305 155.914 36.8958 157.678 36.8958C160.053 36.8958 161.858 35.9027 163.094 33.9166C164.053 32.3888 164.532 30.9512 164.532 29.604V21.3121H168.761V39.0625C168.428 38.8681 167.803 38.5695 166.886 38.1667L164.49 37.1041V35.4374C162.851 36.6319 161.449 37.3889 160.282 37.7083C159.574 37.9028 158.733 38 157.761 38C154.678 38 152.268 36.6458 150.532 33.9374C149.74 32.7013 149.344 31.354 149.344 29.8956V17.8954H146.823V15.3953H170.761V17.8954ZM191.449 17.8954H170.386V15.3953H191.449V17.8954ZM189.72 25.3747C189.72 26.1942 189.227 27.1178 188.241 28.1456C187.408 29.0206 186.532 29.6734 185.616 30.104L182.491 26.5622C183.435 26.4789 184.331 26.1317 185.178 25.5205C186.151 24.8261 186.637 24.0344 186.637 23.1455C186.637 22.6732 186.331 22.2705 185.72 21.9371C185.192 21.6316 184.671 21.4788 184.157 21.4788C183.088 21.4788 181.942 21.9927 180.72 23.0205C178.234 25.1039 176.991 27.4095 176.991 29.9373V38.7709L172.991 36.6875V21.2704H177.032V22.8538C177.63 22.2566 178.866 21.6316 180.741 20.9788C181.657 20.6593 182.602 20.4996 183.574 20.4996C185.588 20.4996 187.296 21.2704 188.699 22.8121C189.38 23.5622 189.72 24.4163 189.72 25.3747ZM211.45 17.8954H197.574V21.2288C197.63 21.2288 197.686 21.2565 197.741 21.3121C197.797 21.3677 197.845 21.3954 197.887 21.3954C197.776 21.3954 197.713 21.3885 197.699 21.3746C197.699 21.3052 198.734 21.0829 200.804 20.7079C201.568 20.569 202.325 20.4996 203.075 20.4996C206.2 20.4996 208.207 21.3746 209.096 23.1246C209.693 24.2913 209.991 26.6456 209.991 30.1873V38.2083C209.7 38.0972 208.596 37.6458 206.679 36.8541C206.679 36.4097 206.589 36.125 206.408 36C205.672 36.4305 205.068 36.7569 204.595 36.9791C203.095 37.6875 201.352 38.0417 199.366 38.0417C196.63 38.0417 194.519 37.1805 193.033 35.4583C192.31 34.6249 191.949 33.6943 191.949 32.6665C191.949 31.5137 192.519 30.3679 193.658 29.229C195.866 27.0206 198.609 25.9164 201.887 25.9164C203.873 25.9164 205.47 26.3747 206.679 27.2914V25.3747C206.068 24.5969 205.47 24.0761 204.887 23.8122C204.318 23.5483 203.533 23.4302 202.533 23.458C200.297 23.4997 198.248 23.9094 196.387 24.6872C195.554 25.0344 194.741 25.3469 193.949 25.6247V24.083C194.13 23.9302 194.394 23.701 194.741 23.3955C194.797 23.326 194.831 23.2844 194.845 23.2705V17.8954H190.574V15.3953H211.45V17.8954ZM206.679 31.0832C206.679 30.472 205.95 29.9234 204.491 29.4373C203.283 29.0345 202.276 28.8331 201.47 28.8331C198.54 28.8331 196.192 29.8887 194.429 31.9999C193.72 32.8471 193.366 33.5416 193.366 34.0832C193.658 35.0972 194.804 35.6041 196.804 35.6041C199.387 35.6041 201.748 34.9583 203.887 33.6666C205.748 32.5415 206.679 31.6804 206.679 31.0832Z" fill="url(#paint0_linear_2_6)"/>
<path d="M46.9213 70.162C46.3213 70.162 45.7813 70.048 45.3013 69.82C44.8333 69.58 44.4613 69.256 44.1853 68.848C43.9093 68.44 43.7713 67.984 43.7713 67.48C43.7713 66.844 43.9333 66.34 44.2573 65.968C44.5933 65.596 45.1393 65.332 45.8953 65.176C46.6633 65.008 47.7073 64.924 49.0273 64.924H49.6033V64.366C49.6033 63.622 49.4473 63.088 49.1353 62.764C48.8353 62.428 48.3493 62.26 47.6773 62.26C47.1493 62.26 46.6393 62.338 46.1473 62.494C45.6553 62.638 45.1513 62.878 44.6353 63.214L44.1313 62.152C44.5873 61.828 45.1393 61.57 45.7873 61.378C46.4473 61.186 47.0773 61.09 47.6773 61.09C48.8053 61.09 49.6393 61.366 50.1793 61.918C50.7313 62.47 51.0073 63.328 51.0073 64.492V70H49.6393V68.488C49.4113 69.004 49.0573 69.412 48.5773 69.712C48.1093 70.012 47.5573 70.162 46.9213 70.162ZM47.1553 69.064C47.8753 69.064 48.4633 68.818 48.9193 68.326C49.3753 67.822 49.6033 67.186 49.6033 66.418V65.878H49.0453C48.0733 65.878 47.3053 65.926 46.7413 66.022C46.1893 66.106 45.7993 66.262 45.5713 66.49C45.3553 66.706 45.2473 67.006 45.2473 67.39C45.2473 67.882 45.4153 68.284 45.7513 68.596C46.0993 68.908 46.5673 69.064 47.1553 69.064ZM57.0422 70.162C56.2622 70.162 55.5782 69.976 54.9902 69.604C54.4142 69.232 53.9642 68.71 53.6402 68.038C53.3282 67.354 53.1722 66.55 53.1722 65.626C53.1722 64.69 53.3282 63.886 53.6402 63.214C53.9642 62.53 54.4142 62.008 54.9902 61.648C55.5782 61.276 56.2622 61.09 57.0422 61.09C57.7262 61.09 58.3262 61.24 58.8422 61.54C59.3702 61.84 59.7602 62.254 60.0122 62.782V57.31H61.4702V70H60.0482V68.398C59.7962 68.95 59.4062 69.382 58.8782 69.694C58.3502 70.006 57.7382 70.162 57.0422 70.162ZM57.3482 68.992C58.1642 68.992 58.8182 68.704 59.3102 68.128C59.8022 67.54 60.0482 66.706 60.0482 65.626C60.0482 64.534 59.8022 63.7 59.3102 63.124C58.8182 62.548 58.1642 62.26 57.3482 62.26C56.5202 62.26 55.8602 62.548 55.3682 63.124C54.8882 63.7 54.6482 64.534 54.6482 65.626C54.6482 66.706 54.8882 67.54 55.3682 68.128C55.8602 68.704 56.5202 68.992 57.3482 68.992ZM67.8424 70.162C66.9904 70.162 66.2524 69.976 65.6284 69.604C65.0044 69.232 64.5184 68.71 64.1704 68.038C63.8344 67.354 63.6664 66.55 63.6664 65.626C63.6664 64.702 63.8344 63.904 64.1704 63.232C64.5184 62.548 65.0044 62.02 65.6284 61.648C66.2524 61.276 66.9904 61.09 67.8424 61.09C68.6824 61.09 69.4144 61.276 70.0384 61.648C70.6744 62.02 71.1604 62.548 71.4964 63.232C71.8444 63.904 72.0184 64.702 72.0184 65.626C72.0184 66.55 71.8444 67.354 71.4964 68.038C71.1604 68.71 70.6744 69.232 70.0384 69.604C69.4144 69.976 68.6824 70.162 67.8424 70.162ZM67.8424 68.992C68.6584 68.992 69.3124 68.704 69.8044 68.128C70.2964 67.54 70.5424 66.706 70.5424 65.626C70.5424 64.534 70.2964 63.7 69.8044 63.124C69.3124 62.548 68.6584 62.26 67.8424 62.26C67.0144 62.26 66.3544 62.548 65.8624 63.124C65.3824 63.7 65.1424 64.534 65.1424 65.626C65.1424 66.706 65.3824 67.54 65.8624 68.128C66.3544 68.704 67.0144 68.992 67.8424 68.992ZM74.2083 70V61.252H75.6303V62.818C76.0983 61.762 77.0583 61.18 78.5103 61.072L79.0323 61.018L79.1403 62.278L78.2223 62.386C77.3943 62.458 76.7643 62.722 76.3323 63.178C75.9003 63.622 75.6843 64.234 75.6843 65.014V70H74.2083ZM80.6595 70V61.252H82.0815V62.746C82.3695 62.194 82.7775 61.78 83.3055 61.504C83.8335 61.228 84.4275 61.09 85.0875 61.09C87.1635 61.09 88.2015 62.242 88.2015 64.546V70H86.7435V64.636C86.7435 63.82 86.5815 63.226 86.2575 62.854C85.9455 62.47 85.4415 62.278 84.7455 62.278C83.9415 62.278 83.2995 62.53 82.8195 63.034C82.3515 63.526 82.1175 64.186 82.1175 65.014V70H80.6595ZM96.521 73.24L98.015 69.856L94.325 61.252H95.909L98.807 68.344L101.723 61.252H103.253L98.051 73.24H96.521ZM108.272 70.162C107.42 70.162 106.682 69.976 106.058 69.604C105.434 69.232 104.948 68.71 104.6 68.038C104.264 67.354 104.096 66.55 104.096 65.626C104.096 64.702 104.264 63.904 104.6 63.232C104.948 62.548 105.434 62.02 106.058 61.648C106.682 61.276 107.42 61.09 108.272 61.09C109.112 61.09 109.844 61.276 110.468 61.648C111.104 62.02 111.59 62.548 111.926 63.232C112.274 63.904 112.448 64.702 112.448 65.626C112.448 66.55 112.274 67.354 111.926 68.038C111.59 68.71 111.104 69.232 110.468 69.604C109.844 69.976 109.112 70.162 108.272 70.162ZM108.272 68.992C109.088 68.992 109.742 68.704 110.234 68.128C110.726 67.54 110.972 66.706 110.972 65.626C110.972 64.534 110.726 63.7 110.234 63.124C109.742 62.548 109.088 62.26 108.272 62.26C107.444 62.26 106.784 62.548 106.292 63.124C105.812 63.7 105.572 64.534 105.572 65.626C105.572 66.706 105.812 67.54 106.292 68.128C106.784 68.704 107.444 68.992 108.272 68.992ZM117.734 70.162C115.634 70.162 114.584 69.004 114.584 66.688V61.252H116.042V66.67C116.042 67.45 116.198 68.026 116.51 68.398C116.834 68.77 117.338 68.956 118.022 68.956C118.766 68.956 119.372 68.71 119.84 68.218C120.308 67.714 120.542 67.048 120.542 66.22V61.252H122V70H120.578V68.524C120.302 69.052 119.912 69.46 119.408 69.748C118.916 70.024 118.358 70.162 117.734 70.162ZM124.728 70V61.252H126.15V62.818C126.618 61.762 127.578 61.18 129.03 61.072L129.552 61.018L129.66 62.278L128.742 62.386C127.914 62.458 127.284 62.722 126.852 63.178C126.42 63.622 126.204 64.234 126.204 65.014V70H124.728ZM138.556 70.162C137.956 70.162 137.416 70.048 136.936 69.82C136.468 69.58 136.096 69.256 135.82 68.848C135.544 68.44 135.406 67.984 135.406 67.48C135.406 66.844 135.568 66.34 135.892 65.968C136.228 65.596 136.774 65.332 137.53 65.176C138.298 65.008 139.342 64.924 140.662 64.924H141.238V64.366C141.238 63.622 141.082 63.088 140.77 62.764C140.47 62.428 139.984 62.26 139.312 62.26C138.784 62.26 138.274 62.338 137.782 62.494C137.29 62.638 136.786 62.878 136.27 63.214L135.766 62.152C136.222 61.828 136.774 61.57 137.422 61.378C138.082 61.186 138.712 61.09 139.312 61.09C140.44 61.09 141.274 61.366 141.814 61.918C142.366 62.47 142.642 63.328 142.642 64.492V70H141.274V68.488C141.046 69.004 140.692 69.412 140.212 69.712C139.744 70.012 139.192 70.162 138.556 70.162ZM138.79 69.064C139.51 69.064 140.098 68.818 140.554 68.326C141.01 67.822 141.238 67.186 141.238 66.418V65.878H140.68C139.708 65.878 138.94 65.926 138.376 66.022C137.824 66.106 137.434 66.262 137.206 66.49C136.99 66.706 136.882 67.006 136.882 67.39C136.882 67.882 137.05 68.284 137.386 68.596C137.734 68.908 138.202 69.064 138.79 69.064ZM145.347 70V61.252H146.769V62.746C147.057 62.194 147.465 61.78 147.993 61.504C148.521 61.228 149.115 61.09 149.775 61.09C151.851 61.09 152.889 62.242 152.889 64.546V70H151.431V64.636C151.431 63.82 151.269 63.226 150.945 62.854C150.633 62.47 150.129 62.278 149.433 62.278C148.629 62.278 147.987 62.53 147.507 63.034C147.039 63.526 146.805 64.186 146.805 65.014V70H145.347ZM155.577 70V57.31H157.035V65.14H157.071L161.121 61.252H162.975L158.583 65.464L163.353 70H161.499L157.071 65.896H157.035V70H155.577ZM167.259 70.162C166.371 70.162 165.699 69.904 165.243 69.388C164.799 68.86 164.577 68.098 164.577 67.102V57.31H166.035V66.994C166.035 68.278 166.545 68.92 167.565 68.92C167.865 68.92 168.135 68.884 168.375 68.812L168.339 70.036C167.967 70.12 167.607 70.162 167.259 70.162ZM173.758 70.162C172.378 70.162 171.286 69.76 170.482 68.956C169.678 68.14 169.276 67.036 169.276 65.644C169.276 64.744 169.456 63.952 169.816 63.268C170.176 62.572 170.668 62.038 171.292 61.666C171.928 61.282 172.66 61.09 173.488 61.09C174.676 61.09 175.606 61.474 176.278 62.242C176.95 62.998 177.286 64.042 177.286 65.374V65.932H170.698C170.746 66.928 171.034 67.69 171.562 68.218C172.09 68.734 172.822 68.992 173.758 68.992C174.286 68.992 174.79 68.914 175.27 68.758C175.75 68.59 176.206 68.32 176.638 67.948L177.142 68.974C176.746 69.346 176.242 69.64 175.63 69.856C175.018 70.06 174.394 70.162 173.758 70.162ZM173.524 62.17C172.696 62.17 172.042 62.428 171.562 62.944C171.082 63.46 170.8 64.138 170.716 64.978H176.026C175.99 64.09 175.756 63.4 175.324 62.908C174.904 62.416 174.304 62.17 173.524 62.17ZM182.348 70.162C181.664 70.162 181.016 70.066 180.404 69.874C179.792 69.682 179.288 69.412 178.892 69.064L179.36 68.038C179.792 68.386 180.266 68.644 180.782 68.812C181.31 68.968 181.844 69.046 182.384 69.046C183.068 69.046 183.584 68.92 183.932 68.668C184.28 68.416 184.454 68.074 184.454 67.642C184.454 67.306 184.34 67.042 184.112 66.85C183.884 66.646 183.524 66.49 183.032 66.382L181.394 66.022C179.906 65.698 179.162 64.93 179.162 63.718C179.162 62.926 179.474 62.29 180.098 61.81C180.734 61.33 181.562 61.09 182.582 61.09C183.182 61.09 183.752 61.186 184.292 61.378C184.844 61.558 185.3 61.828 185.66 62.188L185.174 63.214C184.826 62.89 184.418 62.644 183.95 62.476C183.494 62.296 183.038 62.206 182.582 62.206C181.91 62.206 181.4 62.338 181.052 62.602C180.704 62.866 180.53 63.214 180.53 63.646C180.53 64.318 180.974 64.75 181.862 64.942L183.5 65.284C184.268 65.452 184.85 65.722 185.246 66.094C185.642 66.454 185.84 66.946 185.84 67.57C185.84 68.374 185.522 69.01 184.886 69.478C184.25 69.934 183.404 70.162 182.348 70.162Z" fill="black"/>
<path d="M262.421 14.5508C268.041 16.5943 278.881 22.1748 274.172 30.7557C273.483 32.0117 272.307 32.8926 271.085 33.6415C265.34 37.1638 255.889 45.1258 252.768 56.0494C248.4 71.3384 242.94 71.8844 229.835 69.7003C227.183 69.2583 225.174 68.8535 223.67 68.4896C220.561 67.7374 220.668 64.295 223.592 62.9975C225.481 62.1588 228.21 61.6548 232.019 62.0558C226.16 62.0558 218.015 61.3284 231 58.4543C231.67 58.306 232.35 58.1166 232.902 57.7086C236.215 55.2576 240.824 46.5493 238.026 26.5635" stroke="#25272D" stroke-width="1.66356"/>
<path d="M228.021 62.0559C227.475 63.148 227.802 67.1886 222.56 68.0623" stroke="#25272D" stroke-width="1.66356"/>
<path d="M267.335 17.281C266.607 17.463 264.454 19.902 265.327 21.6493C266.201 23.3966 264.963 24.5615 264.235 24.9255C263.325 25.2895 261.614 26.3452 262.051 27.6557C262.597 29.2938 258.229 28.2017 258.229 29.2938C258.229 30.3858 256.591 32.57 254.953 32.0239C253.642 31.5871 252.222 33.662 251.676 34.7541C250.948 35.6642 249.055 37.1567 247.308 35.8462C245.561 34.5357 243.668 35.3001 242.94 35.8462H239.118" stroke="#25272D" stroke-width="1.66356"/>
<path d="M260.959 6.36035C262.051 7.81644 263.58 10.8378 260.959 11.2747C257.683 11.8207 258.775 6.36035 260.959 6.36035Z" stroke="#BB491B" stroke-width="1.09207"/>
<path d="M255.087 12.3478C256.543 11.2563 259.565 9.72854 260.001 12.3497C260.546 15.6261 255.086 14.5319 255.087 12.3478Z" stroke="#BB491B" stroke-width="1.09207"/>
<path d="M239.862 27.1949C238.188 26.4799 235.353 24.6277 237.405 22.939C239.969 20.828 241.753 26.1028 239.862 27.1949Z" stroke="#BB491B" stroke-width="1.09207"/>
<path d="M241.953 19.0736C241.238 20.7471 239.384 23.5812 237.696 21.5291C235.586 18.9641 240.862 17.1817 241.953 19.0736Z" stroke="#BB491B" stroke-width="1.09207"/>
<path d="M242.996 24.3969C241.565 23.2731 239.306 20.7504 241.724 19.6501C244.748 18.2747 245.106 23.8316 242.996 24.3969Z" stroke="#BB491B" stroke-width="1.09207"/>
<path d="M247.119 17.0937C245.995 18.525 243.471 20.7828 242.372 18.3638C240.998 15.34 246.555 14.9838 247.119 17.0937Z" stroke="#BB491B" stroke-width="1.09207"/>
<path d="M252.18 15.5093C251.088 14.0532 249.559 11.0318 252.18 10.595C255.456 10.0489 254.364 15.5093 252.18 15.5093Z" stroke="#BB491B" stroke-width="1.09207"/>
<path d="M258.051 9.52182C256.595 10.6133 253.573 12.1411 253.137 9.51996C252.592 6.24354 258.052 7.33772 258.051 9.52182Z" stroke="#BB491B" stroke-width="1.09207"/>
<path d="M249.109 13.2874C250.541 14.4112 252.8 16.934 250.381 18.0343C247.358 19.4096 246.999 13.8527 249.109 13.2874Z" stroke="#BB491B" stroke-width="1.09207"/>
<path d="M244.986 20.5906C246.111 19.1593 248.634 16.9015 249.734 19.3205C251.108 22.3443 245.551 22.7005 244.986 20.5906Z" stroke="#BB491B" stroke-width="1.09207"/>
<defs>
<linearGradient id="paint0_linear_2_6" x1="-33.1398" y1="-44.2" x2="217.101" y2="67.6542" gradientUnits="userSpaceOnUse">
<stop stop-color="#9A3810"/>
<stop offset="1" stop-color="#FF6D32"/>
</linearGradient>
</defs>
</svg>
